<svg xmlns="http://www.w3.org/2000/svg" width="64" height="64" viewBox="0 0 64 64" role="img" aria-label="Admin App">
  <title>Admin App</title>
  <!-- Person -->
  <g fill="#c4c4c4ff" transform="scale(1.2) translate(2,-2)">
    <!-- Head -->
    <circle cx="22" cy="20" r="10" />
    <!-- Torso -->
    <path d="M8 44c0-8.284 6.716-15 15-15h-2c8.284 0 15 6.716 15 15v6a4 4 0 0 1-4 4H12a4 4 0 0 1-4-4v-6z" />
  </g>

  <!-- Gear -->
  <g transform="translate(40,40) scale(1.2)" fill="#60a5fa">
    <!-- center -->
    <circle cx="0" cy="0" r="5" />
    <!-- teeth -->
    <rect x="-2" y="-14" width="4" height="6" rx="1" />
    <rect x="-2" y="8" width="4" height="6" rx="1" />
    <rect x="8" y="-2" width="6" height="4" rx="1" />
    <rect x="-14" y="-2" width="6" height="4" rx="1" />
    <rect x="-2" y="-14" width="4" height="6" rx="1" transform="rotate(45)" />
    <rect x="-2" y="-14" width="4" height="6" rx="1" transform="rotate(90)" />
    <rect x="-2" y="-14" width="4" height="6" rx="1" transform="rotate(135)" />
    <rect x="-2" y="-14" width="4" height="6" rx="1" transform="rotate(180)" />
  </g>
</svg>
